<svg width="200" height="229" viewBox="0 0 200 229" fill="none" xmlns="http://www.w3.org/2000/svg">
<path d="M74.3925 3.5718C69.9916 3.49466 65.6978 4.41987 61.4806 6.9828L61.4846 6.97121C59.4055 8.23618 57.2175 10.0688 55.1428 10.512C48.3543 11.9664 42.6291 15.8345 36.1669 17.8891C33.093 18.8642 31.6145 20.7459 31.7068 23.9326C30.4458 26.2169 28.4554 27.6468 26.1426 28.7392C24.0938 29.7032 22.1417 30.8045 21.5317 33.2359L21.5019 33.2596C19.0923 36.0677 16.5584 38.7787 14.1011 42.9767L89.441 18.252C86.1816 15.1536 82.7974 12.5314 86.5642 7.77692C83.1857 8.00655 80.7971 9.96621 77.9511 9.52612C79.5661 7.12281 83.0221 7.63156 84.8685 5.27061C81.3028 4.2977 77.8151 3.63155 74.3925 3.5718ZM114.823 18.574C111.648 18.7711 108.594 19.0216 105.959 21.3019C102.829 23.9932 99.3111 24.7579 95.7619 21.7647C93.083 19.5041 90.4724 19.9321 87.4346 21.4027C80.4199 24.807 73.2247 27.8488 66.1098 31.0355C49.6023 38.4648 33.1012 45.9007 16.6065 53.343C11.3326 55.0677 11.099 55.547 12.3118 60.8004C13.1982 64.6359 14.7976 68.6734 10.2973 71.5337C9.80395 71.7569 9.38648 72.1192 9.09605 72.5762C8.80562 73.0332 8.65485 73.565 8.66222 74.1065C8.65805 74.1088 8.65374 74.1108 8.64928 74.1123C7.48107 78.1939 8.46068 82.1618 9.20218 86.1707C9.67348 88.7087 10.8537 88.6119 12.8036 87.6854C17.2151 85.5826 21.6914 83.6122 26.1631 81.6423C40.3021 75.4267 54.4435 69.2156 68.5875 63.0089C68.984 63.0256 69.3809 62.9893 69.7678 62.901C69.3085 63.1435 68.884 63.4316 68.6522 63.972L54.1481 72.4727L32.3074 83.5997C26.0503 84.6797 20.6235 88.0599 14.6928 89.9777C11.0223 91.1619 11.7517 92.4398 14.2536 94.0874C16.5945 96.9076 20.0434 97.6045 23.2783 98.7005L23.2916 98.6929C25.7984 99.8682 28.29 101.083 30.8248 102.201C33.1818 103.249 35.3728 103.611 36.8072 100.622C37.6134 98.9256 39.0799 98.6795 40.8362 99.4856C43.5731 100.761 46.4704 100.799 49.3999 100.293L49.3972 100.295C49.4037 100.295 49.4097 100.296 49.415 100.296L49.4297 100.308L49.4502 100.299C50.5605 100.396 51.6569 100.41 52.6205 99.7041C53.9461 99.7041 55.2833 99.5994 56.5928 99.7322C62.8294 100.369 69.3237 98.2492 75.3306 101.569C76.4712 102.198 77.5346 100.953 78.5539 100.434C89.3755 94.8951 100.186 89.331 110.986 83.7411C125.329 76.3498 139.667 68.9596 153.999 61.5705C155.228 60.9342 158.028 60.6564 155.586 58.1706V58.1501C153.913 54.7788 152.413 51.3432 151.819 47.5871L151.83 47.5737C151.641 44.7741 150.686 42.208 149.477 39.7021C148.43 37.5548 147.25 36.9577 144.804 38.0457C139.144 40.5676 133.337 42.8688 127.536 44.9435C121.735 47.0182 116.347 50.2776 110.111 51.1234L110.092 51.1212L110.095 51.1194C110.039 50.1643 110.9 50.2731 111.42 49.9833L142.195 32.8485C142.308 29.9756 141.276 27.3931 140.18 24.8306L140.174 24.8337L140.175 24.8306C138.7 21.0959 136.114 20.0035 132.376 21.4981C129.841 22.5486 127.14 23.1409 124.398 23.2473V23.2388L124.378 23.2459L122.247 23.0738C119.249 22.4331 117.365 19.9638 114.823 18.574ZM160.116 67.1783C159.419 67.2202 158.631 67.5127 157.702 68.0005C146.357 73.9513 134.91 79.7076 123.497 85.5215C110.085 92.3703 96.6518 99.1472 83.2883 106.069C82.4465 106.5 80.0824 106.408 81.2105 108.514C82.6837 111.257 82.2373 114.155 82.3131 117.03L82.3091 117.032V117.044C82.2773 118.453 82.248 119.86 82.2213 121.266C82.5347 123.523 83.3616 125.677 84.6384 127.564L84.6527 127.567L84.6424 127.571L86.2739 129.743L90.0974 134.529C90.7501 138.981 93.0179 139.029 96.8458 137.72C110.721 132.966 124.734 128.599 138.694 124.086L139.5 124.917L139.511 124.915L124.295 132.116C121.761 132.793 119.461 133.977 117.184 135.262C116.85 135.225 116.513 135.28 116.209 135.423C115.904 135.565 115.645 135.788 115.46 136.068C109.416 138.317 103.528 140.963 97.8334 143.989C97.7396 143.945 97.6323 143.939 97.534 143.971C97.4357 144.004 97.3538 144.074 97.3055 144.166C96.0784 144.3 94.9257 144.82 94.014 145.652C91.8987 146.128 89.5213 146.817 89.6341 149.339C89.9159 155.644 87.7284 161.376 86.1009 167.258L86.0969 167.259C85.5964 168.131 85.3755 169.136 85.4642 170.138C85.5529 171.139 85.9468 172.089 86.5927 172.86C87.8336 174.346 89.4812 172.594 90.8429 172.098C111.51 164.605 132.159 157.064 152.792 149.476C155.519 148.477 159.019 148.033 160.675 146.08C162.456 143.972 160.047 140.576 160.232 137.687C160.465 136.448 160.702 135.208 160.934 133.964L160.938 133.96C162.179 130.145 165.217 127.337 166.768 123.695L173.843 113.865C175.345 110.642 179.031 109.626 180.989 106.859L180.898 106.89L180.969 106.851C185.179 104.268 186.98 99.8927 189.945 95.3403L170.8 101.222C169.716 101.293 168.649 101.452 167.59 101.657C168.152 101.333 168.645 100.902 169.04 100.388C170.217 99.8241 171.405 99.2725 172.573 98.6884C178.738 95.6105 185.502 93.8171 191.303 89.9656C191.147 89.9367 191.005 89.8558 190.901 89.736C191.034 89.8082 191.167 89.8809 191.303 89.9656C191.863 88.2855 191.654 86.5769 191.336 84.9129L191.348 84.9374C190.896 82.5805 189.861 81.3717 187.319 83.0718C185.713 84.2226 183.86 84.9829 181.908 85.2923L181.893 85.3017C181.893 85.2956 181.894 85.2895 181.897 85.2838C178.363 85.0177 174.717 85.0868 172.292 81.7712H172.303C171.167 80.2119 169.959 81.3355 168.807 81.7948C159.902 85.373 150.999 88.9575 142.099 92.5482C141.431 92.6101 140.792 92.7622 140.167 92.9597C140.549 92.5896 140.884 92.1732 141.112 91.6497C147.55 88.3112 153.98 84.9619 160.402 81.6017C163.202 80.1352 167.779 79.0798 168.311 77.0091C169.004 74.3254 164.657 72.1214 163.073 69.3012C162.187 67.7326 161.278 67.1083 160.116 67.1783ZM161.282 149.969C160.894 149.943 160.396 150.055 159.757 150.318C137.271 159.598 114.765 168.827 92.2367 178.004C90.5165 178.722 90.1455 179.35 91.0284 181.139C93.1793 185.489 95.1572 189.933 96.2657 194.698V194.705C96.3986 196.014 96.7169 197.34 96.6322 198.638C96.4307 201.639 96.9747 202.561 100.238 201.111C115.169 194.463 130.261 188.186 145.188 181.534C151.542 178.702 155.869 173.67 158.523 167.224L158.508 167.226C158.512 167.224 158.513 167.222 158.517 167.219C162.368 162.811 162.969 157.542 162.546 152.006C162.449 150.749 162.134 150.025 161.282 149.969ZM145.16 184.591C129.886 192.476 115.294 200.171 100.524 207.508C96.729 209.398 96.0602 211.452 98.014 214.857C98.8434 217.934 101.001 219.87 103.65 221.393V221.396L103.653 221.395L103.655 221.396L103.663 221.398C104.645 222.716 106.03 223.23 107.591 223.399C113.123 226.662 119.726 223.717 122.768 216.626C126.636 214.434 130.479 212.154 134.379 210.003C136.884 208.621 138.649 206.914 138.055 203.77L138.058 203.765C138.803 201.698 141.471 201.182 141.978 198.93C141.523 194.067 145.624 190.066 145.164 184.599L145.16 184.591Z" fill="#6B3A2A"/>
</svg>
